<?xml version="1.0" encoding="UTF-8" standalone="no"?>
<!-- Created with Inkscape (http://www.inkscape.org/) -->

<svg
   width="210mm"
   height="297mm"
   viewBox="0 0 210 297"
   version="1.1"
   id="svg1"
   inkscape:version="1.3.2 (091e20e, 2023-11-25, custom)"
   sodipodi:docname="LOGOSUNAILS.svg"
   xmlns:inkscape="http://www.inkscape.org/namespaces/inkscape"
   xmlns:sodipodi="http://sodipodi.sourceforge.net/DTD/sodipodi-0.dtd"
   xmlns:xlink="http://www.w3.org/1999/xlink"
   xmlns="http://www.w3.org/2000/svg"
   xmlns:svg="http://www.w3.org/2000/svg">
  <sodipodi:namedview
     id="namedview1"
     pagecolor="#ffffff"
     bordercolor="#000000"
     borderopacity="0.25"
     inkscape:showpageshadow="2"
     inkscape:pageopacity="0.0"
     inkscape:pagecheckerboard="0"
     inkscape:deskcolor="#d1d1d1"
     inkscape:document-units="mm"
     inkscape:zoom="1.0343421"
     inkscape:cx="358.68211"
     inkscape:cy="557.35913"
     inkscape:window-width="1920"
     inkscape:window-height="1017"
     inkscape:window-x="-8"
     inkscape:window-y="-8"
     inkscape:window-maximized="1"
     inkscape:current-layer="layer1" />
  <defs
     id="defs1">
    <rect
       x="242.34667"
       y="498.36593"
       width="18.799812"
       height="27.686996"
       id="rect28" />
    <rect
       x="263.881"
       y="411.54498"
       width="242.00485"
       height="66.995687"
       id="rect26" />
    <linearGradient
       id="linearGradient25"
       inkscape:collect="always">
      <stop
         style="stop-color:#f3bb2f;stop-opacity:1;"
         offset="0"
         id="stop25" />
      <stop
         style="stop-color:#141408;stop-opacity:0.94475138;"
         offset="1"
         id="stop26" />
    </linearGradient>
    <linearGradient
       inkscape:collect="always"
       xlink:href="#linearGradient25"
       id="linearGradient26"
       x1="143.35503"
       y1="153.9263"
       x2="146.77165"
       y2="138.73264"
       gradientUnits="userSpaceOnUse"
       gradientTransform="matrix(1.1555965,0,0,1.1792286,-28.427846,-13.660058)" />
  </defs>
  <g
     inkscape:label="SlÄnis 1"
     inkscape:groupmode="layer"
     id="layer1">
    <path
       style="fill:none;fill-opacity:1;stroke:#f3bb2f;stroke-width:10.6988;stroke-dasharray:none;stroke-opacity:1"
       id="path2"
       sodipodi:type="arc"
       sodipodi:cx="93.431274"
       sodipodi:cy="143.75186"
       sodipodi:rx="62.91526"
       sodipodi:ry="63.562"
       sodipodi:start="0.53977753"
       sodipodi:end="4.1220246"
       sodipodi:open="true"
       sodipodi:arc-type="arc"
       d="M 147.40143,176.41924 A 62.91526,63.562 0 0 1 83.217493,206.47068 62.91526,63.562 0 0 1 31.946491,157.22883 62.91526,63.562 0 0 1 58.408629,90.948499" />
    <rect
       style="fill:#323232;fill-opacity:1;stroke:none;stroke-width:1.00494;stroke-dasharray:none;stroke-opacity:1"
       id="rect19"
       width="5.785861"
       height="33.154869"
       x="185.8192"
       y="78.013306"
       transform="matrix(0.96540944,0.2607386,-0.25105747,0.96797218,0,0)" />
    <rect
       style="fill:#323232;fill-opacity:1;stroke:none;stroke-width:4.045;stroke-dasharray:none;stroke-opacity:1"
       id="rect20"
       width="10.047407"
       height="17.040056"
       x="184.44214"
       y="60.204151"
       transform="matrix(0.96320713,0.26876018,-0.25882419,0.96592445,0,0)" />
    <rect
       style="fill:#323232;fill-opacity:1;stroke:none;stroke-width:4.04499;stroke-dasharray:none;stroke-opacity:1"
       id="rect21"
       width="15.112478"
       height="35.608944"
       x="181.55943"
       y="30.019852"
       transform="matrix(0.96596743,0.25866371,-0.24904912,0.96849085,0,0)" />
    <path
       id="rect22"
       style="fill:url(#linearGradient26);fill-opacity:1;stroke:none;stroke-width:4.6986;stroke-dasharray:none"
       d="m 151.13365,153.84836 8.44115,2.34112 -3.86793,25.67063 -18.47414,-8.73999 z"
       sodipodi:nodetypes="ccccc" />
    <path
       id="text26"
       style="font-size:48px;white-space:pre;shape-inside:url(#rect26);fill:#000000;fill-opacity:0;stroke:#f3bb2f;stroke-width:3.52955;stroke-dasharray:none;stroke-opacity:1"
       d="m 55.001267,133.42551 c -1.678202,0 -3.062563,0.40273 -4.153741,1.20752 -1.091173,0.79806 -1.637047,1.82372 -1.637047,3.07783 0,1.09316 0.327819,1.98182 0.983905,2.66588 0.662994,0.67736 1.678373,1.15729 3.045799,1.43896 0.676806,0.13412 1.315441,0.24447 1.916277,0.33166 0.607744,0.0871 1.170617,0.19805 1.688578,0.33218 0.683716,0.17436 1.191701,0.41896 1.523198,0.73417 0.338406,0.31521 0.507535,0.80492 0.507535,1.46886 0,0.77125 -0.35586,1.38815 -1.067199,1.8509 -0.704426,0.46276 -1.691765,0.69429 -2.962504,0.69429 -0.897804,0 -1.8577,-0.17121 -2.87981,-0.51324 -1.022116,-0.34202 -1.92385,-0.82795 -2.704246,-1.45836 h -0.14501 v 2.49481 c 0.918524,0.39568 1.820254,0.69407 2.704246,0.89527 0.890895,0.2012 1.891954,0.30175 3.003848,0.30175 1.035927,0 1.92006,-0.12067 2.652111,-0.36211 0.738965,-0.24142 1.384761,-0.57678 1.937255,-1.006 0.50415,-0.39567 0.894012,-0.87886 1.17026,-1.44891 0.283156,-0.57005 0.424842,-1.14674 0.424842,-1.7302 0,-1.07304 -0.289937,-1.9079 -0.870055,-2.50478 -0.58012,-0.59688 -1.443369,-1.04311 -2.589796,-1.3382 -0.566307,-0.14082 -1.257147,-0.27834 -2.072073,-0.41247 -0.81493,-0.13413 -1.443125,-0.24774 -1.885121,-0.34163 -0.835651,-0.18778 -1.419404,-0.45955 -1.750901,-0.81499 -0.331496,-0.35543 -0.497346,-0.84516 -0.497346,-1.46886 0,-0.69747 0.3317,-1.26763 0.994693,-1.71026 0.669898,-0.44262 1.554031,-0.66385 2.652113,-0.66385 1.001395,0 1.978294,0.1609 2.931348,0.4828 0.959958,0.31521 1.73372,0.71469 2.320748,1.19756 h 1.503645 l -0.313531,-1.82093 c -0.697527,-0.29509 -2.543837,-1.07671 -3.448545,-1.27791 -0.904709,-0.20119 -1.899208,-0.30174 -2.983476,-0.30174 z m 81.144103,0 c -1.67821,0 -3.06256,0.40273 -4.15374,1.20752 -1.09118,0.79806 -1.63705,1.82372 -1.63705,3.07783 0,1.09316 0.32842,1.98182 0.98451,2.66588 0.66299,0.67736 1.67777,1.15729 3.04519,1.43896 0.67681,0.13412 1.31604,0.24447 1.91689,0.33166 0.60774,0.0871 1.17061,0.19805 1.68858,0.33218 0.6837,0.17436 1.19109,0.41896 1.52259,0.73417 0.3384,0.31521 0.50753,0.80492 0.50753,1.46886 0,0.77125 -0.35586,1.38815 -1.0672,1.8509 -0.70442,0.46276 -1.69176,0.69429 -2.9625,0.69429 -0.8978,0 -1.85769,-0.17121 -2.87981,-0.51324 -1.02212,-0.34202 -1.92325,-0.82795 -2.70365,-1.45836 h -0.145 v 2.49481 c 0.91851,0.39568 1.81964,0.69407 2.70364,0.89527 0.8909,0.2012 1.89196,0.30175 3.00385,0.30175 1.03592,0 1.92006,-0.12067 2.65211,-0.36211 0.73896,-0.24142 1.38476,-0.57678 1.93726,-1.006 0.50415,-0.39567 0.8946,-0.87886 1.17086,-1.44891 0.28314,-0.57005 0.42423,-1.14674 0.42423,-1.7302 0,-1.07304 -0.28993,-1.9079 -0.87005,-2.50478 -0.58012,-0.59688 -1.44337,-1.04311 -2.58979,-1.3382 -0.56632,-0.14082 -1.25655,-0.27834 -2.07148,-0.41247 -0.81493,-0.13413 -1.44372,-0.24774 -1.88571,-0.34163 -0.83566,-0.18778 -1.41941,-0.45955 -1.75091,-0.81499 -0.33149,-0.35543 -0.49674,-0.84516 -0.49674,-1.46886 0,-0.69747 0.33109,-1.26763 0.99409,-1.71026 0.6699,-0.44262 1.55403,-0.66385 2.65211,-0.66385 1.0014,0 1.9789,0.1609 2.93194,0.4828 0.95997,0.31521 1.73313,0.71469 2.32016,1.19756 h 0.145 v -2.35417 c -0.69752,-0.29509 -1.49872,-0.54347 -2.40344,-0.74467 -0.9047,-0.20119 -1.8992,-0.30174 -2.98347,-0.30174 z m -72.069636,0.27184 v 8.96324 c 0,1.1334 0.121407,2.08892 0.363121,2.86688 0.248623,0.77795 0.652204,1.44213 1.211608,1.99206 0.490337,0.48287 1.094974,0.84813 1.813213,1.09627 0.718244,0.24813 1.560612,0.37207 2.527479,0.37207 0.946145,0 1.774794,-0.11686 2.486129,-0.35161 0.711339,-0.23471 1.332975,-0.60703 1.86475,-1.11673 0.559398,-0.53651 0.959705,-1.20722 1.20142,-2.012 0.248622,-0.8115 0.37331,-1.76049 0.37331,-2.84694 v -8.96324 H 73.86566 v 9.11385 c 0,0.73101 -0.05876,1.34465 -0.176166,1.84093 -0.110498,0.48958 -0.300514,0.92548 -0.569853,1.30775 -0.310777,0.44264 -0.725403,0.77472 -1.243365,0.99604 -0.517961,0.21461 -1.146162,0.32221 -1.885121,0.32221 -0.732057,0 -1.360252,-0.11085 -1.885122,-0.33218 -0.517962,-0.22131 -0.929304,-0.55014 -1.233177,-0.98607 -0.269344,-0.38227 -0.462632,-0.80785 -0.58004,-1.27731 -0.110498,-0.46945 -0.165382,-1.10974 -0.165382,-1.92121 v -9.06401 z m 15.756878,0 v 14.9788 h 1.916283 l 0.209021,-10.62691 7.10496,10.62691 h 2.537667 v -14.9788 h -1.91628 v 12.33928 L 83.012631,133.5907 Z m 19.682322,0 -5.614615,14.9788 h 2.082257 l 1.51241,-4.17463 h 6.671624 l 1.51241,4.17463 h 2.18593 l -5.61522,-14.9788 z m 10.038596,0 v 1.52921 h 2.01995 v 11.92038 h -2.01995 v 1.52921 h 6.09099 v -1.52921 h -2.01994 v -11.92038 h 2.01994 v -1.52921 z m 9.582,0 v 14.9788 h 9.75877 v -1.77061 h -7.70767 v -13.20819 z m -18.51375,4.19306 2.91267,4.90085 -6.358674,1.06647 z"
       sodipodi:nodetypes="scscccccscssccccscccsscscsscsccccssscscccccscssccccscccsscscsscsccccsscsccsssccsccscccscccscccccccccccccccccccccccccccccccccccccccccccccc" />
    <text
       xml:space="preserve"
       style="font-size:4.52998px;fill:#000000;fill-opacity:0;stroke:#f3bb2f;stroke-width:0.841661;stroke-dasharray:none;stroke-opacity:1"
       x="48.224209"
       y="201.6678"
       id="text27"
       transform="scale(1.2793615,0.78163991)"><tspan
         sodipodi:role="line"
         id="tspan27"
         style="font-size:4.52998px;stroke-width:0.841661;stroke-dasharray:none"
         x="48.224209"
         y="201.6678">VISS TAVIEM NAGIEM</tspan></text>
    <text
       xml:space="preserve"
       transform="matrix(0.30575157,0,0,0.31200422,-28.427846,-13.660058)"
       id="text28"
       style="font-size:14.6667px;white-space:pre;shape-inside:url(#rect28);fill:#000000;fill-opacity:0;stroke:#f3bb2f;stroke-width:2.72504;stroke-dasharray:none;stroke-opacity:1" />
  </g>
</svg>
